<svg height="20" viewBox="0 0 10 20" fill="currentColor" width="10" xmlns="http://www.w3.org/2000/svg"><path d="M5.181 20.02c-2.39-.034-4.357-2-4.391-4.39L.619 3.724a3.136 3.136 0 0 1 3.2-3.2c1.479.021 2.727 1.034 3.139 2.391a.552.552 0 0 1 .147.36l.171 11.905a2.09 2.09 0 0 1-2.133 2.133 2.24 2.24 0 0 1-2.195-2.195l-.14-9.74a.523.523 0 0 1 .533-.534.56.56 0 0 1 .549.549l.14 9.74c.009.599.5 1.09 1.098 1.098a1.044 1.044 0 0 0 1.066-1.067L6.031 3.801a2.24 2.24 0 0 0-2.196-2.195 2.09 2.09 0 0 0-2.133 2.133l.17 11.906a3.361 3.361 0 0 0 3.294 3.294 3.136 3.136 0 0 0 3.2-3.2L8.21 4.915a.523.523 0 0 1 .534-.533.56.56 0 0 1 .549.549l.155 10.822a4.182 4.182 0 0 1-4.267 4.267z" fill="currentColor" fill-rule="nonzero"></path></svg>